<?xml version="1.0" encoding="UTF-8"?>
<svg width="44px" height="44px" viewBox="0 0 44 44" version="1.1" xmlns="http://www.w3.org/2000/svg" xmlns:xlink="http://www.w3.org/1999/xlink">
    <!-- Generator: Sketch 40 (33762) - http://www.bohemiancoding.com/sketch -->
    <title>豆瓣</title>
    <desc>Created with Sketch.</desc>
    <defs></defs>
    <g id="Page-1" stroke="none" stroke-width="1" fill="none" fill-rule="evenodd">
        <g id="Desktop-HD" transform="translate(-698.000000, -937.000000)" fill="#3C4650">
            <g id="社交网络" transform="translate(604.000000, 937.000000)">
                <path d="M116,44 C128.150265,44 138,34.1502651 138,22 C138,9.8497349 128.150265,0 116,0 C103.849735,0 94,9.8497349 94,22 C94,34.1502651 103.849735,44 116,44 Z M127.008594,13.688125 L105.197656,13.688125 L105.197656,11.4709375 L127.008594,11.4709375 L127.008594,13.688125 Z M127.511328,33.2689844 L104.540234,33.2689844 L104.540234,31.0260156 L111.410937,31.0260156 C110.568746,29.1955377 109.679302,27.6143035 108.742578,26.2822656 L110.508594,25.1478906 L107.414844,25.1478906 L107.414844,16.2920313 L124.86875,16.2920313 L124.86875,25.1478906 L121.620312,25.1478906 L123.386328,26.3080469 C122.55273,28.1385248 121.68477,29.7111653 120.782422,31.0260156 L127.511328,31.0260156 L127.511328,33.2689844 Z M122.419531,22.9178125 L122.419531,18.5736719 L109.851172,18.5736719 L109.851172,22.9178125 L122.419531,22.9178125 Z M121.194922,25.1478906 L110.959766,25.1478906 C112.059771,26.9783685 113.060933,28.9377239 113.963281,31.0260156 L118.139844,31.0260156 C119.420319,29.0408494 120.438668,27.081494 121.194922,25.1478906 Z" id="豆瓣"></path>
            </g>
        </g>
    </g>
</svg>