<?xml version="1.0" encoding="UTF-8"?>
<svg width="105px" height="48px" viewBox="0 0 105 48" version="1.1" xmlns="http://www.w3.org/2000/svg" xmlns:xlink="http://www.w3.org/1999/xlink">
    <!-- Generator: Sketch 41.2 (35397) - http://www.bohemiancoding.com/sketch -->
    <title>Artboard</title>
    <desc>Created with Sketch.</desc>
    <defs>
        <path d="M26.0192308,33 L33,14.9433962 L33,0 L17.7692308,0 L0,7.47169811 L0,33 L26.0192308,33 Z" id="path-1"></path>
        <mask id="mask-2" maskContentUnits="userSpaceOnUse" maskUnits="objectBoundingBox" x="0" y="0" width="33" height="33" fill="white">
            <use xlink:href="#path-1"></use>
        </mask>
    </defs>
    <g id="Page-1" stroke="none" stroke-width="1" fill="none" fill-rule="evenodd">
        <g id="Artboard">
            <g id="飞地app" transform="translate(8.000000, 8.000000)">
                <use id="Combined-Shape" stroke="#FFFFFF" mask="url(#mask-2)" stroke-width="4" xlink:href="#path-1"></use>
                <path d="M88.655814,9.1255814 L88.2093023,11.1348837 L86.9813953,17.4976744 C86.4232558,20.2883721 84.7488372,20.4 82.8511628,20.6232558 L82.7395349,18.055814 C83.5209302,17.944186 84.1906977,17.7209302 84.3023256,16.9395349 L85.3069767,11.8046512 L82.8511628,12.3627907 L80.6186047,23.3023256 L77.6046512,23.3023256 L79.6139535,13.0325581 L77.4930233,13.4790698 L75.4837209,23.4139535 C75.372093,24.1953488 75.8186047,24.5302326 76.7116279,24.6418605 L80.9534884,24.6418605 C83.1860465,24.6418605 83.4093023,23.4139535 84.5255814,21.4046512 L87.0930233,22.2976744 C85.9767442,24.6418605 85.0837209,27.0976744 82.0697674,27.0976744 L75.5953488,27.0976744 C73.1395349,27.0976744 72.1348837,25.9813953 72.4697674,23.8604651 L74.3674419,14.2604651 L72.8046512,14.5953488 L73.3627907,11.6930233 L74.9255814,11.3581395 L75.4837209,8.34418605 L78.4976744,8.34418605 L78.0511628,10.6883721 L80.172093,10.2418605 L80.9534884,6.44651163 L83.9674419,6.44651163 L83.2976744,9.57209302 L88.655814,8.45581395 L88.655814,9.1255814 Z M70.7953488,21.8511628 L70.3488372,24.0837209 L70.2372093,24.6418605 L64.4325581,25.8697674 L64.9906977,22.9674419 L67.6697674,22.4093023 L69.2325581,14.9302326 L66.5534884,15.4883721 L67.1116279,12.5860465 L69.7906977,12.027907 L71.0186047,6 L74.0325581,6 L72.9162791,11.3581395 L72.5813953,12.9209302 L70.7953488,21.8511628 Z M61.9767442,16.4930233 L59.855814,19.3953488 C58.2930233,18.3906977 56.7302326,17.2744186 54.944186,16.3813953 C54.8325581,18.9488372 54.2744186,23.6372093 56.9534884,23.972093 C58.7395349,24.1953488 59.744186,21.5162791 60.3023256,20.2883721 L62.7581395,21.0697674 C61.6418605,23.5255814 60.0790698,26.8744186 56.9534884,26.8744186 C53.9395349,26.8744186 52.1534884,25.3116279 51.7069767,22.0744186 C51.372093,19.6186047 51.8186047,15.3767442 53.1581395,9.01395349 L43,9.01395349 L43.5581395,6.11162791 L56.8418605,6.11162791 L55.7255814,11.5813953 L61.6418605,6.78139535 L63.7627907,9.46046512 L57.4,13.8139535 L61.9767442,16.4930233 Z" id="飞地传媒" fill="#FFFFFF"></path>
            </g>
        </g>
    </g>
</svg>