<?xml version="1.0" encoding="UTF-8"?>
<svg width="44px" height="44px" viewBox="0 0 44 44" version="1.1" xmlns="http://www.w3.org/2000/svg" xmlns:xlink="http://www.w3.org/1999/xlink">
    <!-- Generator: Sketch 40 (33762) - http://www.bohemiancoding.com/sketch -->
    <title>新浪</title>
    <desc>Created with Sketch.</desc>
    <defs></defs>
    <g id="Page-1" stroke="none" stroke-width="1" fill="none" fill-rule="evenodd">
        <g id="Desktop-HD" transform="translate(-792.000000, -937.000000)" fill="#3C4650">
            <g id="社交网络" transform="translate(604.000000, 937.000000)">
                <path d="M210,44 C222.150265,44 232,34.1502651 232,22 C232,9.8497349 222.150265,0 210,0 C197.849735,0 188,9.8497349 188,22 C188,34.1502651 197.849735,44 210,44 Z M207.8,33.44 C215.333164,33.44 221.381227,29.500106 221.381227,24.64 C221.381227,20.5341849 216.239591,20.5341849 216.239591,20.2691516 C216.239591,20.0041183 218.8,17.618824 216.239591,16.1346402 C213.679182,14.6504563 208.995874,16.9069618 209.136712,16.6647058 C211.150962,13.2 208.27194,12.1061415 206.804423,12.1061415 C203.30599,12.1061415 194.16,19.779894 194.16,24.64 C194.16,29.500106 200.266836,33.44 207.8,33.44 Z M208.15607,30.7443334 C212.968878,30.0679373 216.514016,26.9836018 216.074359,23.8552767 C215.634702,20.7269516 211.376738,18.7392706 206.56393,19.4156666 C201.751122,20.0920627 198.205984,23.1763982 198.645641,26.3047233 C199.085298,29.4330484 203.343262,31.4207294 208.15607,30.7443334 Z M207.266553,29.8921662 C210.12904,29.335755 212.073661,26.9509412 211.609985,24.5655351 C211.146309,22.180129 208.449921,20.6974358 205.587434,21.253847 C202.724947,21.8102581 200.780326,24.195072 201.244002,26.5804781 C201.707678,28.9658842 204.404066,30.4485773 207.266553,29.8921662 Z M207.36,25.52 C207.846011,25.52 208.24,25.1260106 208.24,24.64 C208.24,24.1539894 207.846011,23.76 207.36,23.76 C206.873989,23.76 206.48,24.1539894 206.48,24.64 C206.48,25.1260106 206.873989,25.52 207.36,25.52 Z M205.330863,27.5273722 C206.211813,27.1165783 206.676204,26.2479506 206.368108,25.5872378 C206.060013,24.926525 205.096101,24.7239257 204.21515,25.1347196 C203.3342,25.5455136 202.869809,26.4141413 203.177905,27.0748541 C203.486,27.7355669 204.449912,27.9381661 205.330863,27.5273722 Z M219.579004,14.0143777 C217.988807,12.5832004 216.273962,13.0773858 216.273962,13.0773858 C215.725012,13.1451038 215.28,13.6429568 215.28,14.194459 L215.28,13.709004 C215.28,14.2582285 215.735843,14.675442 216.276644,14.6779753 C216.276644,14.6779753 217.670768,14.4384305 218.518873,15.445555 C219.366978,16.4526795 218.786783,17.7191731 218.786783,17.7191731 C218.63882,18.2492461 218.967972,18.6789552 219.511663,18.6789551 L219.381313,18.6789551 C219.929615,18.6789551 220.459555,18.2396005 220.530722,17.6988541 C220.530722,17.6988541 221.169201,15.445555 219.579004,14.0143777 Z M222.547372,11.1520233 C219.632011,8.39568178 215.885176,8.79826827 215.885176,8.79826827 C215.064936,8.79922468 214.4,9.46770415 214.4,10.3028889 L214.4,9.6491344 C214.4,10.479157 215.061806,11.1211461 215.901358,11.1292108 C215.901358,11.1292108 219.472991,10.6894126 221.222208,13.2000002 C222.971424,15.7105879 222.26724,18.3148128 222.26724,18.3148128 C222.15848,19.1306918 222.732414,19.7920925 223.560591,19.7920925 L222.912322,19.7920925 C223.735381,19.7920925 224.492927,19.1274567 224.56149,18.3104203 C224.56149,18.3104203 225.462733,13.9083647 222.547372,11.1520233 Z" id="新浪"></path>
            </g>
        </g>
    </g>
</svg>