<?xml version="1.0" encoding="UTF-8"?>
<svg width="44px" height="44px" viewBox="0 0 44 44" version="1.1" xmlns="http://www.w3.org/2000/svg" xmlns:xlink="http://www.w3.org/1999/xlink">
    <!-- Generator: Sketch 40 (33762) - http://www.bohemiancoding.com/sketch -->
    <title>微信</title>
    <desc>Created with Sketch.</desc>
    <defs></defs>
    <g id="Page-1" stroke="none" stroke-width="1" fill="none" fill-rule="evenodd">
        <g id="Desktop-HD" transform="translate(-604.000000, -937.000000)" fill="#3C4650">
            <g id="社交网络" transform="translate(604.000000, 937.000000)">
                <path d="M19.8720437,27.9078712 C19.2778652,28.0017624 18.665561,28.0508119 18.04,28.0508119 C16.7915608,28.0508119 15.5959216,27.8554546 14.491784,27.4981852 C13.9364941,27.3185082 11.9075274,29.4433619 11.4034467,29.1860355 C11.1031285,29.0327271 12.3095923,26.5209105 12.0302391,26.3424504 C9.53683225,24.7495796 7.92,22.1906618 7.92,19.3054059 C7.92,14.4754514 12.4508781,10.56 18.04,10.56 C23.3100615,10.56 27.6392522,14.0411763 28.1163502,18.4877367 C32.5494155,18.6611724 36.08,21.7287626 36.08,25.487564 C36.08,27.821833 34.7183996,29.8895304 32.6246284,31.1630526 C32.2302766,31.4029144 33.4784668,33.4253499 33.0363744,33.6053416 C32.7638943,33.7162781 30.8146301,32.0044271 30.5265966,32.0904558 C29.64936,32.3524652 28.7045558,32.4951281 27.72,32.4951281 C24.1177636,32.4951281 21.0476565,30.5853862 19.8720437,27.9078712 Z M19.4093456,26.2533576 C18.9637865,26.3149478 18.5063526,26.3469829 18.04,26.3469829 C16.8729303,26.3469829 15.7617161,26.1463551 14.752688,25.7839678 C14.6520365,25.7478194 14.293121,25.6395262 14.0989583,25.7839683 C13.662489,26.1086678 13.0772088,26.7826469 13.0772088,26.7826469 C13.0772088,26.7826469 13.2914774,26.2918942 13.3632985,25.5752461 C13.3961152,25.2477938 12.8963533,25.0181917 12.7966144,24.950729 C10.8959286,23.6651173 9.68,21.5412284 9.68,19.3334915 C9.68,15.4600469 13.4228993,12.32 18.04,12.32 C22.3509855,12.32 25.8998465,15.0574775 26.3514777,18.5734326 C22.3853965,19.1208643 19.36,22.0080609 19.36,25.487564 C19.36,25.7463444 19.3767344,26.0018485 19.4093456,26.2533576 Z M22,44 C34.1502651,44 44,34.1502651 44,22 C44,9.8497349 34.1502651,0 22,0 C9.8497349,0 0,9.8497349 0,22 C0,34.1502651 9.8497349,44 22,44 Z M14.52,17.6 C15.2490159,17.6 15.84,17.0090159 15.84,16.28 C15.84,15.5509841 15.2490159,14.96 14.52,14.96 C13.7909841,14.96 13.2,15.5509841 13.2,16.28 C13.2,17.0090159 13.7909841,17.6 14.52,17.6 Z M21.56,17.6 C22.2890159,17.6 22.88,17.0090159 22.88,16.28 C22.88,15.5509841 22.2890159,14.96 21.56,14.96 C20.8309841,14.96 20.24,15.5509841 20.24,16.28 C20.24,17.0090159 20.8309841,17.6 21.56,17.6 Z M24.64,23.76 C25.1260106,23.76 25.52,23.3660106 25.52,22.88 C25.52,22.3939894 25.1260106,22 24.64,22 C24.1539894,22 23.76,22.3939894 23.76,22.88 C23.76,23.3660106 24.1539894,23.76 24.64,23.76 Z M29.92,23.76 C30.4060106,23.76 30.8,23.3660106 30.8,22.88 C30.8,22.3939894 30.4060106,22 29.92,22 C29.4339894,22 29.04,22.3939894 29.04,22.88 C29.04,23.3660106 29.4339894,23.76 29.92,23.76 Z" id="微信"></path>
            </g>
        </g>
    </g>
</svg>